<svg width="50" height="50" viewBox="0 0 50 50" fill="none" xmlns="http://www.w3.org/2000/svg">
<rect width="50" height="50" rx="5" fill="white"/>
<path d="M29.401 33.5L19 15M20.599 33.5L31 15M35 32C35 32.7956 34.6839 33.5587 34.1213 34.1213C33.5587 34.6839 32.7956 35 32 35C31.2044 35 30.4413 34.6839 29.8787 34.1213C29.3161 33.5587 29 32.7956 29 32C29 31.2044 29.3161 30.4413 29.8787 29.8787C30.4413 29.3161 31.2044 29 32 29C32.7956 29 33.5587 29.3161 34.1213 29.8787C34.6839 30.4413 35 31.2044 35 32ZM15 32C15 32.7956 15.3161 33.5587 15.8787 34.1213C16.4413 34.6839 17.2044 35 18 35C18.7956 35 19.5587 34.6839 20.1213 34.1213C20.6839 33.5587 21 32.7956 21 32C21 31.2044 20.6839 30.4413 20.1213 29.8787C19.5587 29.3161 18.7956 29 18 29C17.2044 29 16.4413 29.3161 15.8787 29.8787C15.3161 30.4413 15 31.2044 15 32Z" stroke="#FF5A2B" stroke-width="1.5" stroke-linecap="round"/>
<path d="M3.4165 23.0833V25.2083M6.24984 20.25V28.0417M9.08317 18.125V30.875M11.9165 21.6667V28.0417M14.7498 18.5V26.625M17.5832 21.6667V25.2083" stroke="#FF5A2B" stroke-width="1.5" stroke-linecap="round" stroke-linejoin="round"/>
<path d="M32.4165 21.6667V25.2083M35.2498 20.25V26.625M38.0832 18.125V29.5M40.9165 21.6667V26.625M43.7498 19.5417V29.5M46.5832 23.0833V25.2083" stroke="#FF5A2B" stroke-width="1.5" stroke-linecap="round" stroke-linejoin="round"/>
</svg>
