<svg width="46" height="24" viewBox="0 0 46 24" fill="none" xmlns="http://www.w3.org/2000/svg">
<path d="M27.401 20.5L17 2M18.599 20.5L29 2M33 19C33 19.7956 32.6839 20.5587 32.1213 21.1213C31.5587 21.6839 30.7956 22 30 22C29.2044 22 28.4413 21.6839 27.8787 21.1213C27.3161 20.5587 27 19.7956 27 19C27 18.2044 27.3161 17.4413 27.8787 16.8787C28.4413 16.3161 29.2044 16 30 16C30.7956 16 31.5587 16.3161 32.1213 16.8787C32.6839 17.4413 33 18.2044 33 19ZM13 19C13 19.7956 13.3161 20.5587 13.8787 21.1213C14.4413 21.6839 15.2044 22 16 22C16.7956 22 17.5587 21.6839 18.1213 21.1213C18.6839 20.5587 19 19.7956 19 19C19 18.2044 18.6839 17.4413 18.1213 16.8787C17.5587 16.3161 16.7956 16 16 16C15.2044 16 14.4413 16.3161 13.8787 16.8787C13.3161 17.4413 13 18.2044 13 19Z" stroke="#FF5A2B" stroke-width="1.5" stroke-linecap="round"/>
<path d="M1.4165 10.0833V12.2083M4.24984 7.25V15.0417M7.08317 5.125V17.875M9.9165 8.66667V15.0417M12.7498 5.5V13.625M15.5832 8.66667L15.5832 12.2083" stroke="#FF5A2B" stroke-width="1.5" stroke-linecap="round" stroke-linejoin="round"/>
<path d="M30.4165 8.66667V12.2083M33.2498 7.25L33.2498 13.625M36.0832 5.125L36.0832 16.5M38.9165 8.66667V13.625M41.7498 6.54167V16.5M44.5832 10.0833V12.2083" stroke="#FF5A2B" stroke-width="1.5" stroke-linecap="round" stroke-linejoin="round"/>
</svg>
