<svg width="24" height="24" viewBox="0 0 24 24" fill="none" xmlns="http://www.w3.org/2000/svg">
<path d="M16.401 20.5L6 2M7.599 20.5L18 2M22 19C22 19.7956 21.6839 20.5587 21.1213 21.1213C20.5587 21.6839 19.7956 22 19 22C18.2044 22 17.4413 21.6839 16.8787 21.1213C16.3161 20.5587 16 19.7956 16 19C16 18.2044 16.3161 17.4413 16.8787 16.8787C17.4413 16.3161 18.2044 16 19 16C19.7956 16 20.5587 16.3161 21.1213 16.8787C21.6839 17.4413 22 18.2044 22 19ZM2 19C2 19.7956 2.31607 20.5587 2.87868 21.1213C3.44129 21.6839 4.20435 22 5 22C5.79565 22 6.55871 21.6839 7.12132 21.1213C7.68393 20.5587 8 19.7956 8 19C8 18.2044 7.68393 17.4413 7.12132 16.8787C6.55871 16.3161 5.79565 16 5 16C4.20435 16 3.44129 16.3161 2.87868 16.8787C2.31607 17.4413 2 18.2044 2 19Z" stroke="#FF5A2B" stroke-width="1.5" stroke-linecap="round"/>
</svg>
